<svg width="3685" height="908" xmlns="http://www.w3.org/2000/svg" xmlns:xlink="http://www.w3.org/1999/xlink" overflow="hidden"><defs><clipPath id="clip0"><rect x="65" y="990" width="3685" height="908"/></clipPath><radialGradient cx="5.1054e+06" cy="1.34179e+06" r="4.81082e+06" fx="457200" fy="2.58204e+06" gradientUnits="userSpaceOnUse" spreadMethod="pad" id="fill1" gradientTransform="matrix(0.000360892 0 0 0.000360892 65.3125 990)"><stop offset="0" stop-color="#002060"/><stop offset="0.29" stop-color="#002060"/><stop offset="0.72" stop-color="#183B7C"/><stop offset="1" stop-color="#8FAADC"/></radialGradient></defs><g clip-path="url(#clip0)" transform="translate(-65 -990)"><path d="M3271.9 1556.65C3251.37 1556.65 3236.96 1560.68 3228.65 1568.74 3220.34 1576.8 3216.19 1587.92 3216.19 1602.09 3216.19 1616.26 3220.34 1627.62 3228.65 1636.18 3236.96 1644.73 3250.88 1649 3270.43 1649L3433.16 1649C3447.33 1649 3454.41 1642.41 3454.41 1629.21L3454.41 1556.65ZM2117.83 1412.24C2096.33 1412.24 2081.06 1417.38 2072.02 1427.64 2062.98 1437.9 2058.46 1450.6 2058.46 1465.75L2058.46 1506.8 2240.24 1506.8C2261.25 1506.8 2276.04 1502.65 2284.59 1494.34 2293.14 1486.03 2297.41 1474.79 2297.41 1460.62 2297.41 1445.96 2293.02 1434.23 2284.22 1425.44 2275.42 1416.64 2261.5 1412.24 2242.44 1412.24ZM1380.88 1412.24C1347.16 1412.24 1322.61 1421.53 1307.22 1440.1 1291.82 1458.67 1284.13 1488.96 1284.13 1530.99 1284.13 1573.02 1291.82 1603.19 1307.22 1621.52 1322.61 1639.84 1347.16 1649 1380.88 1649L1447.59 1649C1481.3 1649 1505.86 1639.84 1521.25 1621.52 1536.64 1603.19 1544.34 1573.02 1544.34 1530.99 1544.34 1488.96 1536.64 1458.67 1521.25 1440.1 1505.86 1421.53 1481.3 1412.24 1447.59 1412.24ZM3163.41 1337.48 3395.77 1337.48C3419.72 1337.48 3440.24 1340.65 3457.35 1347.01 3474.45 1353.36 3488.5 1362.28 3499.49 1373.76 3510.49 1385.25 3518.43 1398.81 3523.32 1414.44 3528.2 1430.08 3530.65 1446.94 3530.65 1465.02L3530.65 1646.8C3530.65 1660.98 3529.55 1672.95 3527.35 1682.72 3525.15 1692.49 3521.12 1700.44 3515.25 1706.54 3509.39 1712.65 3501.2 1717.17 3490.7 1720.1 3480.19 1723.04 3466.88 1724.5 3450.75 1724.5L3269.7 1724.5C3223.76 1724.5 3190.66 1714 3170.38 1692.98 3150.1 1671.97 3139.96 1643.14 3139.96 1606.49 3139.96 1588.9 3142.28 1573.26 3146.92 1559.58 3151.56 1545.89 3159.02 1534.29 3169.28 1524.76 3179.54 1515.23 3192.98 1507.9 3209.59 1502.77 3226.21 1497.64 3246.49 1495.07 3270.43 1495.07L3454.41 1495.07 3454.41 1465.75C3454.41 1450.6 3449.89 1437.9 3440.85 1427.64 3431.81 1417.38 3416.54 1412.24 3395.04 1412.24L3163.41 1412.24ZM2913.11 1337.48 3072.17 1337.48 3072.17 1412.24 2935.83 1412.24C2902.6 1412.24 2885.99 1428.86 2885.99 1462.09L2885.99 1724.5 2808.29 1724.5 2808.29 1450.36C2808.29 1411.27 2816.23 1382.68 2832.11 1364.6 2847.99 1346.52 2874.99 1337.48 2913.11 1337.48ZM2573.11 1337.48 2732.17 1337.48 2732.17 1412.24 2595.83 1412.24C2562.6 1412.24 2545.99 1428.86 2545.99 1462.09L2545.99 1724.5 2468.29 1724.5 2468.29 1450.36C2468.29 1411.27 2476.23 1382.68 2492.11 1364.6 2507.99 1346.52 2534.99 1337.48 2573.11 1337.48ZM2117.83 1337.48 2243.17 1337.48C2289.11 1337.48 2322.34 1347.86 2342.86 1368.63 2363.38 1389.4 2373.65 1418.6 2373.65 1456.22 2373.65 1491.9 2363.63 1519.38 2343.59 1538.69 2323.56 1557.99 2289.84 1567.64 2242.44 1567.64L2058.46 1567.64 2058.46 1595.49C2058.46 1611.13 2062.98 1623.96 2072.02 1633.98 2081.06 1643.99 2096.33 1649 2117.83 1649L2354.59 1649 2354.59 1724.5 2117.83 1724.5C2093.4 1724.5 2072.75 1721.33 2055.89 1714.97 2039.03 1708.62 2025.11 1699.7 2014.11 1688.22 2003.11 1676.73 1995.17 1663.3 1990.29 1647.9 1985.4 1632.51 1982.96 1615.53 1982.96 1596.96L1982.96 1465.02C1982.96 1446.94 1985.4 1430.08 1990.29 1414.44 1995.17 1398.81 2003.11 1385.25 2014.11 1373.76 2025.11 1362.28 2039.03 1353.36 2055.89 1347.01 2072.75 1340.65 2093.4 1337.48 2117.83 1337.48ZM1373.55 1337.48 1454.92 1337.48C1506.23 1337.48 1547.03 1353.48 1577.33 1385.49 1607.62 1417.5 1622.77 1466 1622.77 1530.99 1622.77 1596.47 1607.62 1645.09 1577.33 1676.86 1547.03 1708.62 1506.23 1724.5 1454.92 1724.5L1373.55 1724.5C1321.75 1724.5 1280.83 1708.62 1250.78 1676.86 1220.72 1645.09 1205.7 1596.47 1205.7 1530.99 1205.7 1465.51 1220.72 1416.89 1250.78 1385.12 1280.83 1353.36 1321.75 1337.48 1373.55 1337.48ZM901.771 1337.48 1116.54 1337.48 1116.54 1412.24 902.505 1412.24C884.424 1412.24 871.474 1415.91 863.656 1423.24 855.837 1430.57 851.927 1441.56 851.927 1456.22 851.927 1469.91 855.715 1480.29 863.289 1487.38 870.863 1494.46 885.401 1498.01 906.903 1498.01L997.794 1498.01C1024.67 1498.01 1046.78 1500.94 1064.13 1506.8 1081.48 1512.67 1095.16 1520.48 1105.18 1530.26 1115.2 1540.03 1122.16 1551.51 1126.07 1564.71 1129.98 1577.9 1131.93 1592.07 1131.93 1607.22 1131.93 1624.33 1129.61 1640.08 1124.97 1654.5 1120.33 1668.92 1112.88 1681.26 1102.61 1691.52 1092.35 1701.78 1079.16 1709.84 1063.03 1715.71 1046.91 1721.57 1027.6 1724.5 1005.12 1724.5L780.094 1724.5 780.094 1649 1005.12 1649C1023.21 1649 1036.15 1645.7 1043.97 1639.11 1051.79 1632.51 1055.7 1621.64 1055.7 1606.49 1055.7 1590.85 1051.43 1579.73 1042.87 1573.14 1034.32 1566.54 1020.27 1563.24 1000.73 1563.24L909.102 1563.24C882.225 1563.24 860.235 1560.19 843.132 1554.08 826.028 1547.97 812.468 1539.66 802.45 1529.16 792.432 1518.65 785.469 1506.56 781.56 1492.87 777.65 1479.19 775.695 1465.02 775.695 1450.36 775.695 1415.66 785.469 1388.18 805.015 1367.9 824.562 1347.62 856.814 1337.48 901.771 1337.48ZM1729.95 1245.85 1808.38 1245.85 1808.38 1337.48 1915.4 1337.48 1915.4 1412.24 1808.38 1412.24 1808.38 1595.49C1808.38 1617.48 1812.41 1632.63 1820.47 1640.94 1828.54 1649.25 1841.85 1653.4 1860.42 1653.4L1913.93 1653.4 1913.93 1724.5 1844.3 1724.5C1824.26 1724.5 1807.03 1722.3 1792.62 1717.91 1778.2 1713.51 1766.35 1706.18 1757.07 1695.92 1747.78 1685.65 1740.94 1671.97 1736.54 1654.87 1732.15 1637.76 1729.95 1616.51 1729.95 1591.1L1729.95 1412.24 1677.17 1412.24 1677.17 1337.48 1729.95 1337.48ZM437.752 1229.73 685.505 1229.73 685.505 1316.22 437.752 1316.22C411.364 1316.22 392.306 1321.84 380.578 1333.08 368.85 1344.32 362.986 1359.47 362.986 1378.53 362.986 1417.62 388.152 1437.17 438.484 1437.17L681.841 1437.17 681.841 1515.6 436.286 1515.6C385.953 1515.6 360.786 1535.63 360.786 1575.7 360.786 1595.25 366.895 1610.52 379.112 1621.52 391.328 1632.51 410.142 1638.01 435.553 1638.01L686.239 1638.01 686.239 1724.5 435.553 1724.5C406.233 1724.5 381.188 1721.08 360.42 1714.24 339.652 1707.4 322.548 1697.99 309.11 1686.02 295.672 1674.05 285.898 1659.75 279.79 1643.14 273.682 1626.52 270.628 1608.69 270.628 1589.63 270.628 1561.29 276.736 1537.71 288.953 1518.9 301.169 1500.08 318.761 1485.79 341.729 1476.02 295.305 1456.96 272.094 1419.82 272.094 1364.6 272.094 1345.05 275.27 1326.97 281.623 1310.36 287.975 1293.74 297.871 1279.45 311.309 1267.48 324.747 1255.5 341.851 1246.22 362.619 1239.62 383.387 1233.03 408.432 1229.73 437.752 1229.73Z" stroke="#181717" stroke-width="3" stroke-linejoin="round" stroke-miterlimit="10" fill="url(#fill1)" fill-rule="evenodd"/><text fill="#000000" fill-opacity="0" font-family="Arial,Arial_MSFontService,sans-serif" font-size="494.775" x="270.628" y="1662.66">Esoterra</text></g></svg>